<svg version="1.1" id="Layer_1" xmlns="http://www.w3.org/2000/svg" xmlns:xlink="http://www.w3.org/1999/xlink" x="0px" y="0px"
     width="100%" viewBox="0 0 1080 1080" enable-background="new 0 0 1080 1080" xml:space="preserve">
<path fill="none" opacity="1.000000" stroke="none"
      d="
M711.000000,1081.000000
	C474.027283,1081.000000 237.554581,1081.000000 1.040936,1081.000000
	C1.040936,721.068848 1.040936,361.137665 1.040936,1.103249
	C360.889587,1.103249 720.779175,1.103249 1080.834473,1.103249
	C1080.834473,360.999939 1080.834473,720.999939 1080.834473,1081.000000
	C957.803894,1081.000000 834.651917,1081.000000 711.000000,1081.000000
M621.489807,588.966248
	C675.697327,566.396790 729.904846,543.827332 785.384277,520.728271
	C781.658936,519.412964 779.440247,518.726562 777.295593,517.857605
	C753.881958,508.370911 730.526978,498.737823 707.062012,489.380157
	C681.742737,479.282990 656.328430,469.423767 630.946716,459.483643
	C605.864502,449.660828 580.749207,439.922363 555.693176,430.033447
	C545.055115,425.834900 533.946899,422.362152 524.119995,416.705017
	C514.322449,411.064880 505.079498,404.119751 500.386505,392.643463
	C497.144470,384.715454 497.164795,376.973694 497.565369,368.725708
	C498.103851,357.636566 502.871124,349.177246 511.493225,342.919739
	C526.553467,331.989685 543.547913,329.597198 561.316589,333.820038
	C570.630371,336.033539 579.762573,339.284851 588.692078,342.792328
	C621.032898,355.495544 653.254944,368.501587 685.518616,381.401337
	C712.991943,392.385803 740.590698,403.069641 767.898315,414.451935
	C800.856079,428.189362 835.061401,438.978119 866.653503,455.923462
	C870.180054,457.815002 873.452759,460.717041 875.952271,463.859161
	C879.623291,468.473846 882.491089,473.727478 885.809692,478.877380
	C894.181396,475.125610 902.282776,471.425659 910.440796,467.855042
	C922.988159,462.363190 935.780090,457.382446 948.080688,451.389435
	C958.408691,446.357452 969.978638,443.739624 977.852051,433.768921
	C984.806091,424.962555 987.464172,415.219147 985.776611,405.044922
	C983.551575,391.630707 975.989136,381.017365 962.947449,375.383392
	C948.159851,368.995209 933.353821,362.639618 918.431641,356.575592
	C897.371643,348.017365 876.169617,339.808929 855.083313,331.314575
	C843.567322,326.675507 832.216431,321.626099 820.698547,316.992035
	C802.889038,309.826660 784.968506,302.937408 767.155334,295.781158
	C753.621094,290.343933 740.235962,284.534180 726.683960,279.142914
	C710.404297,272.666534 693.960938,266.600891 677.695190,260.090759
	C663.418274,254.376617 649.341248,248.164154 635.080078,242.409302
	C619.190369,235.997253 603.137451,229.988983 587.257996,223.552414
	C573.239624,217.870224 558.836487,214.069214 543.654419,214.062256
	C537.763794,214.059555 531.801453,214.524139 525.999329,215.519485
	C518.198547,216.857712 510.258911,218.179977 502.847015,220.822327
	C488.567627,225.912933 474.613800,231.917664 460.530304,237.556595
	C445.600830,243.534241 430.643188,249.443558 415.760284,255.535248
	C397.826324,262.875763 380.007111,270.498047 362.047546,277.774384
	C344.080322,285.053802 325.981354,292.007324 307.976685,299.195312
	C290.194427,306.294495 272.460144,313.513824 254.700699,320.670288
	C236.423172,328.035522 218.131027,335.364655 199.863495,342.754639
	C185.899185,348.403748 171.926285,354.034393 158.024750,359.835114
	C143.004440,366.102661 127.776489,371.984192 113.236275,379.232086
	C107.889526,381.897278 103.321571,387.408600 100.060272,392.654785
	C95.805328,399.499420 94.906601,407.586334 96.143333,415.792816
	C97.724037,426.281799 102.544548,434.824585 112.061653,439.522125
	C122.180489,444.516663 132.824570,448.461273 143.297638,452.720947
	C165.684906,461.826447 188.143234,470.757843 210.509140,479.915222
	C229.622131,487.740753 248.632263,495.817108 267.713776,503.719940
	C297.169312,515.919250 326.633179,528.098633 356.118347,540.226074
	C400.906372,558.647827 445.719391,577.008789 490.513947,595.414673
	C506.454407,601.964539 522.973694,606.072693 540.197815,607.045959
	C556.643005,607.975220 573.024841,607.421021 588.744995,601.939514
	C599.586914,598.159119 610.163208,593.616882 621.489807,588.966248
M809.753906,541.963501
	C809.121826,540.677124 808.489746,539.390686 807.851807,538.092407
	C805.874146,538.856689 804.299866,539.375793 802.799866,540.058167
	C777.654724,551.497131 752.518921,562.956543 727.381042,574.411438
	C708.935059,582.817017 690.550171,591.359985 672.025879,599.589294
	C653.804932,607.683716 635.377441,615.313477 617.160645,623.416992
	C598.648682,631.651733 579.530212,637.641541 559.244751,638.890320
	C532.858948,640.514648 507.146942,636.562805 482.552002,626.931885
	C448.698761,613.675598 415.006744,599.999146 381.378204,586.180054
	C352.428131,574.283447 323.637207,561.997437 294.830597,549.754883
	C283.760681,545.050293 272.842010,539.989868 261.276245,534.833740
	C260.105927,544.109131 258.953918,553.277954 257.789948,562.445312
	C257.296509,566.331909 256.787354,570.216431 256.268982,574.099792
	C255.125305,582.667480 253.929352,591.228455 252.839752,599.802979
	C252.322739,603.871704 252.083450,607.975525 251.573288,612.045288
	C250.419754,621.247070 249.092392,630.427734 248.002197,639.636597
	C247.403046,644.697815 248.016068,650.072876 246.528809,654.819702
	C244.123428,662.496887 245.378403,669.662476 247.467392,676.884155
	C252.201706,693.250732 264.124512,704.224426 277.341522,713.330994
	C289.377045,721.623596 302.363861,728.773560 315.586548,735.045959
	C332.957458,743.286194 350.702148,750.918457 368.785370,757.424377
	C385.488495,763.433777 402.795013,767.813782 419.943054,772.520447
	C430.170074,775.327454 440.533691,777.767700 450.965240,779.659485
	C460.409027,781.372070 470.018402,782.206604 479.572784,783.265442
	C491.521881,784.589722 503.474854,786.577026 515.452393,786.787476
	C534.662903,787.125244 553.922913,786.746643 573.107971,785.689514
	C585.692261,784.996155 598.186768,782.615234 610.710938,780.912292
	C619.211731,779.756409 627.781921,778.885132 636.163818,777.133972
	C647.935669,774.674622 659.707214,772.001526 671.214722,768.540955
	C687.437256,763.662659 703.745422,758.783508 719.404663,752.402039
	C733.440979,746.682007 746.909973,739.391418 760.135193,731.919434
	C769.689331,726.521606 779.090820,720.447510 787.347168,713.277893
	C794.969604,706.658630 801.419189,698.517212 807.591125,690.439392
	C816.773315,678.421631 822.353821,664.760010 821.902344,649.364868
	C821.647339,640.669678 820.367249,632.002991 819.504578,623.327942
	C819.132751,619.588562 818.680786,615.856262 818.208252,612.127991
	C817.449341,606.141052 816.534180,600.171875 815.890381,594.173157
	C815.349060,589.129700 815.160156,584.049377 814.702393,578.995605
	C814.362549,575.243347 813.906555,571.498352 813.388794,567.765930
	C812.236023,559.455627 811.012085,551.155151 809.753906,541.963501
M833.929871,473.639099
	C817.125366,466.891449 800.324280,460.135376 783.515564,453.398193
	C761.439514,444.549744 739.358948,435.712280 717.277588,426.877106
	C687.330994,414.894897 657.392273,402.892639 627.429993,390.949738
	C605.352051,382.149567 583.334229,373.185242 561.097168,364.804626
	C552.964783,361.739685 544.331482,360.787292 535.818787,364.606018
	C528.122375,368.058594 525.775879,375.952850 531.679504,381.793671
	C535.967285,386.035736 541.012634,390.169525 546.510803,392.420380
	C574.985596,404.077423 603.727539,415.080872 632.352356,426.373016
	C676.909180,443.950134 721.434509,461.607086 765.998291,479.166595
	C783.942505,486.237152 801.960449,493.120636 819.928650,500.130554
	C825.102478,502.149017 831.274780,510.507263 831.226807,515.075989
	C831.013550,535.396240 830.740906,555.716431 830.667358,576.037354
	C830.545471,609.691650 830.607361,643.346619 830.418396,677.000366
	C830.404785,679.432434 829.335693,682.052979 828.121643,684.231689
	C826.799194,686.604980 824.533936,688.432861 823.027466,690.726990
	C814.666443,703.459595 814.531067,717.452576 822.843018,729.686768
	C824.622803,732.306458 824.399963,733.655212 823.254272,736.055054
	C819.619934,743.668091 815.813110,751.245789 812.894287,759.140747
	C809.725159,767.712646 806.934326,776.506104 804.980347,785.422485
	C803.039978,794.277100 801.915649,803.373535 801.258911,812.423828
	C800.834229,818.276489 801.745605,824.251221 802.321167,830.145630
	C803.257141,839.730591 807.160706,848.189880 813.598450,855.195129
	C822.331909,864.698425 834.422791,866.485779 846.378235,867.788635
	C850.655762,868.254700 855.188843,867.383545 859.476440,866.498657
	C865.092957,865.339600 871.221680,864.653625 876.006287,861.847778
	C890.678284,853.244019 896.548584,839.292908 896.751587,822.786743
	C896.811218,817.935608 895.967834,813.052917 895.298157,808.218018
	C894.240723,800.583496 893.222656,792.930115 891.756592,785.368347
	C888.508728,768.615662 882.212402,752.929138 873.980713,738.057495
	C871.944519,734.378906 871.929749,731.553223 874.082703,728.122070
	C879.385437,719.670715 879.007812,710.451050 877.301392,701.106140
	C875.719482,692.443176 869.181396,687.166687 863.876709,680.983093
	C862.434509,679.301880 861.350830,676.693237 861.335815,674.501770
	C861.148804,647.342651 861.345703,620.180786 861.130981,593.022034
	C860.891968,562.787598 860.823547,532.535767 859.597961,502.335419
	C859.250793,493.781616 856.712158,484.512146 847.028076,480.208527
	C842.803040,478.330933 838.767761,476.026398 833.929871,473.639099
z"/>
    <path fill="currentColor" opacity="1.000000" stroke="none"
          d="
M621.174011,589.190674
	C610.163208,593.616882 599.586914,598.159119 588.744995,601.939514
	C573.024841,607.421021 556.643005,607.975220 540.197815,607.045959
	C522.973694,606.072693 506.454407,601.964539 490.513947,595.414673
	C445.719391,577.008789 400.906372,558.647827 356.118347,540.226074
	C326.633179,528.098633 297.169312,515.919250 267.713776,503.719940
	C248.632263,495.817108 229.622131,487.740753 210.509140,479.915222
	C188.143234,470.757843 165.684906,461.826447 143.297638,452.720947
	C132.824570,448.461273 122.180489,444.516663 112.061653,439.522125
	C102.544548,434.824585 97.724037,426.281799 96.143333,415.792816
	C94.906601,407.586334 95.805328,399.499420 100.060272,392.654785
	C103.321571,387.408600 107.889526,381.897278 113.236275,379.232086
	C127.776489,371.984192 143.004440,366.102661 158.024750,359.835114
	C171.926285,354.034393 185.899185,348.403748 199.863495,342.754639
	C218.131027,335.364655 236.423172,328.035522 254.700699,320.670288
	C272.460144,313.513824 290.194427,306.294495 307.976685,299.195312
	C325.981354,292.007324 344.080322,285.053802 362.047546,277.774384
	C380.007111,270.498047 397.826324,262.875763 415.760284,255.535248
	C430.643188,249.443558 445.600830,243.534241 460.530304,237.556595
	C474.613800,231.917664 488.567627,225.912933 502.847015,220.822327
	C510.258911,218.179977 518.198547,216.857712 525.999329,215.519485
	C531.801453,214.524139 537.763794,214.059555 543.654419,214.062256
	C558.836487,214.069214 573.239624,217.870224 587.257996,223.552414
	C603.137451,229.988983 619.190369,235.997253 635.080078,242.409302
	C649.341248,248.164154 663.418274,254.376617 677.695190,260.090759
	C693.960938,266.600891 710.404297,272.666534 726.683960,279.142914
	C740.235962,284.534180 753.621094,290.343933 767.155334,295.781158
	C784.968506,302.937408 802.889038,309.826660 820.698547,316.992035
	C832.216431,321.626099 843.567322,326.675507 855.083313,331.314575
	C876.169617,339.808929 897.371643,348.017365 918.431641,356.575592
	C933.353821,362.639618 948.159851,368.995209 962.947449,375.383392
	C975.989136,381.017365 983.551575,391.630707 985.776611,405.044922
	C987.464172,415.219147 984.806091,424.962555 977.852051,433.768921
	C969.978638,443.739624 958.408691,446.357452 948.080688,451.389435
	C935.780090,457.382446 922.988159,462.363190 910.440796,467.855042
	C902.282776,471.425659 894.181396,475.125610 885.809692,478.877380
	C882.491089,473.727478 879.623291,468.473846 875.952271,463.859161
	C873.452759,460.717041 870.180054,457.815002 866.653503,455.923462
	C835.061401,438.978119 800.856079,428.189362 767.898315,414.451935
	C740.590698,403.069641 712.991943,392.385803 685.518616,381.401337
	C653.254944,368.501587 621.032898,355.495544 588.692078,342.792328
	C579.762573,339.284851 570.630371,336.033539 561.316589,333.820038
	C543.547913,329.597198 526.553467,331.989685 511.493225,342.919739
	C502.871124,349.177246 498.103851,357.636566 497.565369,368.725708
	C497.164795,376.973694 497.144470,384.715454 500.386505,392.643463
	C505.079498,404.119751 514.322449,411.064880 524.119995,416.705017
	C533.946899,422.362152 545.055115,425.834900 555.693176,430.033447
	C580.749207,439.922363 605.864502,449.660828 630.946716,459.483643
	C656.328430,469.423767 681.742737,479.282990 707.062012,489.380157
	C730.526978,498.737823 753.881958,508.370911 777.295593,517.857605
	C779.440247,518.726562 781.658936,519.412964 785.384277,520.728271
	C729.904846,543.827332 675.697327,566.396790 621.174011,589.190674
z"/>
    <path fill="currentColor" opacity="1.000000" stroke="none"
          d="
M809.785522,542.407104
	C811.012085,551.155151 812.236023,559.455627 813.388794,567.765930
	C813.906555,571.498352 814.362549,575.243347 814.702393,578.995605
	C815.160156,584.049377 815.349060,589.129700 815.890381,594.173157
	C816.534180,600.171875 817.449341,606.141052 818.208252,612.127991
	C818.680786,615.856262 819.132751,619.588562 819.504578,623.327942
	C820.367249,632.002991 821.647339,640.669678 821.902344,649.364868
	C822.353821,664.760010 816.773315,678.421631 807.591125,690.439392
	C801.419189,698.517212 794.969604,706.658630 787.347168,713.277893
	C779.090820,720.447510 769.689331,726.521606 760.135193,731.919434
	C746.909973,739.391418 733.440979,746.682007 719.404663,752.402039
	C703.745422,758.783508 687.437256,763.662659 671.214722,768.540955
	C659.707214,772.001526 647.935669,774.674622 636.163818,777.133972
	C627.781921,778.885132 619.211731,779.756409 610.710938,780.912292
	C598.186768,782.615234 585.692261,784.996155 573.107971,785.689514
	C553.922913,786.746643 534.662903,787.125244 515.452393,786.787476
	C503.474854,786.577026 491.521881,784.589722 479.572784,783.265442
	C470.018402,782.206604 460.409027,781.372070 450.965240,779.659485
	C440.533691,777.767700 430.170074,775.327454 419.943054,772.520447
	C402.795013,767.813782 385.488495,763.433777 368.785370,757.424377
	C350.702148,750.918457 332.957458,743.286194 315.586548,735.045959
	C302.363861,728.773560 289.377045,721.623596 277.341522,713.330994
	C264.124512,704.224426 252.201706,693.250732 247.467392,676.884155
	C245.378403,669.662476 244.123428,662.496887 246.528809,654.819702
	C248.016068,650.072876 247.403046,644.697815 248.002197,639.636597
	C249.092392,630.427734 250.419754,621.247070 251.573288,612.045288
	C252.083450,607.975525 252.322739,603.871704 252.839752,599.802979
	C253.929352,591.228455 255.125305,582.667480 256.268982,574.099792
	C256.787354,570.216431 257.296509,566.331909 257.789948,562.445312
	C258.953918,553.277954 260.105927,544.109131 261.276245,534.833740
	C272.842010,539.989868 283.760681,545.050293 294.830597,549.754883
	C323.637207,561.997437 352.428131,574.283447 381.378204,586.180054
	C415.006744,599.999146 448.698761,613.675598 482.552002,626.931885
	C507.146942,636.562805 532.858948,640.514648 559.244751,638.890320
	C579.530212,637.641541 598.648682,631.651733 617.160645,623.416992
	C635.377441,615.313477 653.804932,607.683716 672.025879,599.589294
	C690.550171,591.359985 708.935059,582.817017 727.381042,574.411438
	C752.518921,562.956543 777.654724,551.497131 802.799866,540.058167
	C804.299866,539.375793 805.874146,538.856689 807.851807,538.092407
	C808.489746,539.390686 809.121826,540.677124 809.785522,542.407104
z"/>
    <path fill="currentColor" opacity="1.000000" stroke="none"
          d="
M834.288086,473.777405
	C838.767761,476.026398 842.803040,478.330933 847.028076,480.208527
	C856.712158,484.512146 859.250793,493.781616 859.597961,502.335419
	C860.823547,532.535767 860.891968,562.787598 861.130981,593.022034
	C861.345703,620.180786 861.148804,647.342651 861.335815,674.501770
	C861.350830,676.693237 862.434509,679.301880 863.876709,680.983093
	C869.181396,687.166687 875.719482,692.443176 877.301392,701.106140
	C879.007812,710.451050 879.385437,719.670715 874.082703,728.122070
	C871.929749,731.553223 871.944519,734.378906 873.980713,738.057495
	C882.212402,752.929138 888.508728,768.615662 891.756592,785.368347
	C893.222656,792.930115 894.240723,800.583496 895.298157,808.218018
	C895.967834,813.052917 896.811218,817.935608 896.751587,822.786743
	C896.548584,839.292908 890.678284,853.244019 876.006287,861.847778
	C871.221680,864.653625 865.092957,865.339600 859.476440,866.498657
	C855.188843,867.383545 850.655762,868.254700 846.378235,867.788635
	C834.422791,866.485779 822.331909,864.698425 813.598450,855.195129
	C807.160706,848.189880 803.257141,839.730591 802.321167,830.145630
	C801.745605,824.251221 800.834229,818.276489 801.258911,812.423828
	C801.915649,803.373535 803.039978,794.277100 804.980347,785.422485
	C806.934326,776.506104 809.725159,767.712646 812.894287,759.140747
	C815.813110,751.245789 819.619934,743.668091 823.254272,736.055054
	C824.399963,733.655212 824.622803,732.306458 822.843018,729.686768
	C814.531067,717.452576 814.666443,703.459595 823.027466,690.726990
	C824.533936,688.432861 826.799194,686.604980 828.121643,684.231689
	C829.335693,682.052979 830.404785,679.432434 830.418396,677.000366
	C830.607361,643.346619 830.545471,609.691650 830.667358,576.037354
	C830.740906,555.716431 831.013550,535.396240 831.226807,515.075989
	C831.274780,510.507263 825.102478,502.149017 819.928650,500.130554
	C801.960449,493.120636 783.942505,486.237152 765.998291,479.166595
	C721.434509,461.607086 676.909180,443.950134 632.352356,426.373016
	C603.727539,415.080872 574.985596,404.077423 546.510803,392.420380
	C541.012634,390.169525 535.967285,386.035736 531.679504,381.793671
	C525.775879,375.952850 528.122375,368.058594 535.818787,364.606018
	C544.331482,360.787292 552.964783,361.739685 561.097168,364.804626
	C583.334229,373.185242 605.352051,382.149567 627.429993,390.949738
	C657.392273,402.892639 687.330994,414.894897 717.277588,426.877106
	C739.358948,435.712280 761.439514,444.549744 783.515564,453.398193
	C800.324280,460.135376 817.125366,466.891449 834.288086,473.777405
z"/>
</svg>